<svg width="19" height="18" viewBox="0 0 19 18" fill="none" xmlns="http://www.w3.org/2000/svg">
<path d="M18.019 2.78467V4.72173H0V2.78467C0 1.72286 0.868759 0.854065 1.93061 0.854065H4.18299V2.75895C4.18299 3.11288 4.47259 3.40248 4.82652 3.40248C5.18046 3.40248 5.47006 3.11288 5.47006 2.75895V0.854065H12.549V2.75895C12.549 3.11288 12.8386 3.40248 13.1925 3.40248C13.5464 3.40248 13.836 3.11288 13.836 2.75895V0.854065H16.0884C17.1503 0.854065 18.019 1.72286 18.019 2.78467Z" fill="white"/>
<path d="M12.8706 12.4504H17.6263L12.2271 17.264V13.0939C12.2271 12.74 12.5167 12.4504 12.8706 12.4504Z" fill="white"/>
<path d="M18.0189 6.00818V11.1629H12.8706C11.8088 11.1629 10.94 12.0317 10.94 13.0935V17.6112H1.93049C0.868637 17.6112 -0.00012207 16.7424 -0.00012207 15.6806V6.00818H18.0189Z" fill="white"/>
</svg>
